<svg width="46" height="17" viewBox="0 0 46 17" fill="none" xmlns="http://www.w3.org/2000/svg">
<path d="M2.992 0.68L7.96 12.776L12.952 0.68H15.328V17H13.288V10.016L13.552 3.728L8.872 15.08H6.904L2.32 3.68L2.584 10.016V17H0.544V0.68H2.992ZM20.4424 17V0.68H25.5064C27.3784 0.68 28.8184 1.248 29.8264 2.384C30.8344 3.504 31.3384 5.056 31.3384 7.04V10.616C31.3384 12.616 30.8344 14.184 29.8264 15.32C28.8184 16.44 27.3784 17 25.5064 17H20.4424ZM25.4584 2.648H22.5304V15.056H25.4584C27.9384 15.056 29.1784 13.576 29.1784 10.616V7.04C29.1784 4.112 27.9384 2.648 25.4584 2.648ZM35.7237 17V0.68H40.8117C42.3797 0.68 43.5717 1.096 44.3877 1.928C45.2197 2.744 45.6357 3.84 45.6357 5.216V6.488C45.6357 7.864 45.2197 8.968 44.3877 9.8C43.5717 10.632 42.3797 11.048 40.8117 11.048H37.8117V17H35.7237ZM40.8117 2.648H37.8117V9.104H40.8117C41.6757 9.104 42.3317 8.872 42.7797 8.408C43.2437 7.944 43.4757 7.304 43.4757 6.488V5.216C43.4757 4.416 43.2437 3.792 42.7797 3.344C42.3317 2.88 41.6757 2.648 40.8117 2.648Z" fill="#E15353"/>
</svg>
