<svg width="57" height="18" viewBox="0 0 57 18" fill="none" xmlns="http://www.w3.org/2000/svg">
<path d="M2.992 0.68L7.96 12.776L12.952 0.68H15.328V17H13.288V10.016L13.552 3.728L8.872 15.08H6.904L2.32 3.68L2.584 10.016V17H0.544V0.68H2.992ZM20.4424 17V0.68H25.5304C27.0984 0.68 28.2904 1.096 29.1064 1.928C29.9384 2.744 30.3544 3.84 30.3544 5.216V6.488C30.3544 7.864 29.9384 8.968 29.1064 9.8C28.2904 10.632 27.0984 11.048 25.5304 11.048H22.5304V17H20.4424ZM25.5304 2.648H22.5304V9.104H25.5304C26.3944 9.104 27.0504 8.872 27.4984 8.408C27.9624 7.944 28.1944 7.304 28.1944 6.488V5.216C28.1944 4.416 27.9624 3.792 27.4984 3.344C27.0504 2.88 26.3944 2.648 25.5304 2.648ZM37.3253 15.368C38.3333 15.368 39.1093 15.152 39.6533 14.72C40.1973 14.272 40.4693 13.624 40.4693 12.776C40.4693 12.072 40.2773 11.48 39.8933 11C39.5253 10.52 38.9173 10.152 38.0693 9.896L36.1253 9.32C34.9093 8.952 34.0133 8.4 33.4373 7.664C32.8613 6.912 32.5733 5.992 32.5733 4.904C32.5733 4.072 32.7333 3.32 33.0533 2.648C33.3893 1.976 33.9173 1.44 34.6373 1.04C35.3733 0.639999 36.3333 0.439999 37.5173 0.439999C38.2373 0.439999 38.9813 0.527999 39.7493 0.704C40.5173 0.863999 41.2933 1.128 42.0773 1.496L41.4053 3.296C40.6373 2.96 39.9413 2.72 39.3173 2.576C38.7093 2.416 38.1253 2.336 37.5653 2.336C36.6533 2.336 35.9413 2.528 35.4293 2.912C34.9333 3.28 34.6853 3.896 34.6853 4.76C34.6853 5.384 34.8533 5.912 35.1893 6.344C35.5253 6.76 36.1253 7.104 36.9893 7.376L38.9333 7.952C41.3653 8.672 42.5813 10.224 42.5813 12.608C42.5813 13.984 42.1653 15.104 41.3333 15.968C40.5013 16.816 39.1653 17.24 37.3253 17.24C36.5733 17.24 35.7733 17.152 34.9253 16.976C34.0933 16.784 33.2293 16.488 32.3333 16.088L32.9813 14.312C33.8293 14.696 34.5893 14.968 35.2613 15.128C35.9493 15.288 36.6373 15.368 37.3253 15.368ZM46.1299 17V0.68H51.2179C52.7859 0.68 53.9779 1.096 54.7939 1.928C55.6259 2.744 56.0419 3.84 56.0419 5.216V6.488C56.0419 7.864 55.6259 8.968 54.7939 9.8C53.9779 10.632 52.7859 11.048 51.2179 11.048H48.2179V17H46.1299ZM51.2179 2.648H48.2179V9.104H51.2179C52.0819 9.104 52.7379 8.872 53.1859 8.408C53.6499 7.944 53.8819 7.304 53.8819 6.488V5.216C53.8819 4.416 53.6499 3.792 53.1859 3.344C52.7379 2.88 52.0819 2.648 51.2179 2.648Z" fill="#53E19D"/>
</svg>
